<svg width="128" height="138" viewBox="0 0 138 138" role="img" xmlns="http://www.w3.org/2000/svg">
<title>Castor AI logo</title>
<desc>2-3-2 neural network icon</desc>

<line x1="28" y1="38" x2="64" y2="104" stroke="#000" stroke-width="1" opacity="0.25" fill="none"/>
<line x1="28" y1="90" x2="64" y2="24" stroke="#000" stroke-width="1" opacity="0.25" fill="none"/>
<line x1="64" y1="24" x2="100" y2="90" stroke="#000" stroke-width="1" opacity="0.25" fill="none"/>
<line x1="64" y1="104" x2="100" y2="38" stroke="#000" stroke-width="1" opacity="0.25" fill="none"/>

<line x1="28" y1="38" x2="64" y2="24" stroke="#000" stroke-width="1.8" opacity="0.85" fill="none"/>
<line x1="28" y1="38" x2="64" y2="64" stroke="#000" stroke-width="1.8" opacity="0.85" fill="none"/>
<line x1="28" y1="90" x2="64" y2="64" stroke="#000" stroke-width="1.8" opacity="0.85" fill="none"/>
<line x1="28" y1="90" x2="64" y2="104" stroke="#000" stroke-width="1.8" opacity="0.85" fill="none"/>
<line x1="64" y1="24" x2="100" y2="38" stroke="#000" stroke-width="1.8" opacity="0.85" fill="none"/>
<line x1="64" y1="64" x2="100" y2="38" stroke="#000" stroke-width="1.8" opacity="0.85" fill="none"/>
<line x1="64" y1="64" x2="100" y2="90" stroke="#000" stroke-width="1.8" opacity="0.85" fill="none"/>
<line x1="64" y1="104" x2="100" y2="90" stroke="#000" stroke-width="1.8" opacity="0.85" fill="none"/>

<circle cx="28" cy="38" r="9" fill="#ffffff" stroke="#000000" stroke-width="2"/>
<circle cx="28" cy="90" r="9" fill="#ffffff" stroke="#000000" stroke-width="2"/>
<circle cx="64" cy="24" r="9" fill="#ffffff" stroke="#000000" stroke-width="2"/>
<circle cx="64" cy="64" r="9" fill="#ffffff" stroke="#000000" stroke-width="2"/>
<circle cx="64" cy="104" r="9" fill="#ffffff" stroke="#000000" stroke-width="2"/>
<circle cx="100" cy="38" r="9" fill="#ffffff" stroke="#000000" stroke-width="2"/>
<circle cx="100" cy="90" r="9" fill="#ffffff" stroke="#000000" stroke-width="2"/>
</svg>
